<?xml version="1.0" standalone="no"?>
<!DOCTYPE svg PUBLIC "-//W3C//DTD SVG 20010904//EN"
 "http://www.w3.org/TR/2001/REC-SVG-20010904/DTD/svg10.dtd">
<svg version="1.0" xmlns="http://www.w3.org/2000/svg"
 width="256.000000pt" height="256.000000pt" viewBox="0 0 256.000000 256.000000"
 preserveAspectRatio="xMidYMid meet">

<g transform="translate(0.000000,256.000000) scale(0.100000,-0.100000)"
fill="#000000" stroke="none">
<path d="M650 2553 c-310 -55 -534 -254 -628 -558 -13 -42 -16 -146 -19 -675
-4 -681 -3 -706 54 -850 79 -200 255 -361 478 -438 l80 -27 655 0 c654 0 655
0 734 23 261 75 451 266 534 537 13 42 16 146 19 673 4 676 2 714 -51 850 -62
157 -204 311 -360 388 -166 82 -123 78 -836 80 -349 1 -646 0 -660 -3z m464
-442 c14 -12 16 -63 18 -463 l3 -449 115 213 c92 170 121 216 145 228 22 11
67 15 170 15 169 0 239 -10 231 -31 -3 -9 -67 -115 -142 -236 -74 -121 -140
-231 -146 -244 -10 -20 10 -63 166 -355 125 -233 174 -334 166 -339 -34 -21
-455 -20 -474 1 -2 2 -57 123 -122 268 l-119 265 -3 -267 -2 -268 -26 -9 c-27
-11 -325 -14 -361 -4 l-23 6 0 833 0 833 28 11 c41 16 355 9 376 -8z"/>
</g>
</svg>
